{"title":"Sleepaway Camp (1983) 1080p fiveofseven zombiRG","uid":15191985,"size":2517632878,"categoryP":"video","categoryS":"hd___movies","magnet":"?xt=urn:btih:42e7375988323a8aae1a52b9cbe7ae5ce28153ca&amp;dn=Sleepaway+Camp+%281983%29+1080p+fiveofseven+zombiRG&amp;tr=udp%3A%2F%2Ftracker.leechers-paradise.org%3A6969&amp;tr=udp%3A%2F%2Fzer0day.ch%3A1337&amp;tr=udp%3A%2F%2Fopen.demonii.com%3A1337&amp;tr=udp%3A%2F%2Ftracker.coppersurfer.tk%3A6969&amp;tr=udp%3A%2F%2Fexodus.desync.com%3A6969","seeders":1,"leechers":0,"uploader":"fiveofseven","files":3,"time":1467527523,"description":"PLOT - Angela Baker, a traumatized and very shy young girl, \r\nis sent to summer camp with her cousin. Shortly after her arrival, \r\nanyone with sinister or less than honorable intentions gets their comeuppance.\r\n\r\n\r\nINFO\r\n\r\nEncoder: fiveofseven\r\nSource: Blu-Ray\r\nRating: R (Unedited)\r\nGenre: Horror\r\nSubtitles: English\r\nPoster: \r  https://yuq.me/users/25/564/2vMnBlRaJh.jpg \r\n\r\nGeneral\r\nComplete name                            : Sleepaway Camp 1080p (fiveofseven zombiRG).mp4\r\nFormat                                   : MPEG-4\r\nFormat profile                           : Base Media\r\nCodec ID                                 : isom\r\nFile size                                : 2.33 GiB\r\nDuration                                 : 1h 24mn\r\nOverall bit rate mode                    : Variable\r\nOverall bit rate                         : 3 930 Kbps\r\nEncoded date                             : UTC 2016-05-22 00:57:36\r\nTagged date                              : UTC 2016-05-23 17:56:00\r\nWriting application                      : My MP4Box GUI 0.6.0.6 &lt;http://my-mp4box-gui.zymichost.com&gt;\r\n\r\nVideo\r\nID                                       : 1\r\nFormat                                   : AVC\r\nFormat/Info                              : Advanced Video Codec\r\nFormat profile                           :   \r\nFormat settings, CABAC                   : Yes\r\nFormat settings, ReFrames                : 6 frames\r\nCodec ID                                 : avc1\r\nCodec ID/Info                            : Advanced Video Coding\r\nDuration                                 : 1h 24mn\r\nBit rate                                 : 3 800 Kbps\r\nMaximum bit rate                         : 16.6 Mbps\r\nWidth                                    : 1 920 pixels\r\nHeight                                   : 1 080 pixels\r\nDisplay aspect ratio                     : 16:9\r\nFrame rate mode                          : Constant\r\nFrame rate                               : 23.976 fps\r\nColor space                              : YUV\r\nChroma subsampling                       : 4:2:0\r\nBit depth                                : 8 bits\r\nScan type                                : Progressive\r\nBits/(Pixel*Frame)                       : 0.076\r\nStream size                              : 2.25 GiB (97%)\r\nTitle                                    : sc.mp4\r\nWriting library                          : x264 core 148 r2638 7599210\r\nLanguage                                 : English\r\nEncoded date                             : UTC 2016-05-22 00:39:03\r\nTagged date                              : UTC 2016-05-22 00:59:34\r\n\r\nAudio\r\nID                                       : 2\r\nFormat                                   : AAC\r\nFormat/Info                              : Advanced Audio Codec\r\nFormat profile                           : LC\r\nCodec ID                                 : 40\r\nDuration                                 : 1h 24mn\r\nBit rate mode                            : Variable\r\nBit rate                                 : 128 Kbps\r\nMaximum bit rate                         : 131 Kbps\r\nChannel count                            : 2 channels\r\nChannel positions                        : Front: L R\r\nSampling rate                            : 48.0 KHz\r\nCompression mode                         : Lossy\r\nDelay relative to video                  : 83ms\r\nStream size                              : 77.7 MiB (3%)\r\nTitle                                    : aac.mp4\r\nLanguage                                 : English\r\nEncoded date                             : UTC 2016-05-22 00:59:30\r\nTagged date                              : UTC 2016-05-22 00:59:34\r\n\r\n\r\nScreenshots - \r\n  \nhttps://yuq.me/users/25/564/BXMoOIkpn0.jpg \r\n  \nhttps://yuq.me/users/25/564/W0wrX8HZFt.jpg \r\n  \nhttps://yuq.me/users/25/564/W4xVLFk5gR.jpg \r\n  \nhttps://yuq.me/users/25/564/kpy5IHN7zF.jpg \r\n \r\nsignature \r\n  \nhttps://yuq.me/users/25/564/aegRQCBILx.png","torrent":{"xt":"urn:btih:42e7375988323a8aae1a52b9cbe7ae5ce28153ca","amp;dn":"Sleepaway+Camp+%281983%29+1080p+fiveofseven+zombiRG","amp;tr":["udp%3A%2F%2Ftracker.leechers-paradise.org%3A6969","udp%3A%2F%2Fzer0day.ch%3A1337","udp%3A%2F%2Fopen.demonii.com%3A1337","udp%3A%2F%2Ftracker.coppersurfer.tk%3A6969","udp%3A%2F%2Fexodus.desync.com%3A6969"],"infoHash":"42e7375988323a8aae1a52b9cbe7ae5ce28153ca","infoHashBuffer":{"type":"Buffer","data":[66,231,55,89,136,50,58,138,174,26,82,185,203,231,174,92,226,129,83,202]},"announce":[],"urlList":[]}}